<svg width="0" height="0" class="hidden">
  <symbol version="1.1" id="email" xmlns="http://www.w3.org/2000/svg" xmlns:xlink="http://www.w3.org/1999/xlink" x="0px" y="0px" xml:space="preserve" viewBox="0 0 511 511">
    <g>
      <path d="M0,104v303h511V104H0z M308.486,288H202.514L26.166,119h458.668L308.486,288z M149.871,258.327L15,382.409V129.076
		L149.871,258.327z M160.723,268.727L196.486,303h118.027l35.764-34.273L484.27,392H26.73L160.723,268.727z M361.129,258.327
		L496,129.076v253.333L361.129,258.327z"></path>
      <rect x="399.5" y="136" width="24" height="15"></rect>
      <rect x="255.5" y="136" width="128" height="15"></rect>
    </g>
    <g></g>
    <g></g>
    <g></g>
    <g></g>
    <g></g>
    <g></g>
    <g></g>
    <g></g>
    <g></g>
    <g></g>
    <g></g>
    <g></g>
    <g></g>
    <g></g>
    <g></g>
  </symbol>
  <symbol xmlns="http://www.w3.org/2000/svg" preserveAspectRatio="xMinYMin" viewBox="-2 -2 24 24" id="github">
    <path d="M18.88 1.099C18.147.366 17.265 0 16.233 0H3.746C2.714 0 1.832.366 1.099 1.099.366 1.832 0 2.714 0 3.746v12.487c0 1.032.366 1.914 1.099 2.647.733.733 1.615 1.099 2.647 1.099H6.66c.19 0 .333-.007.429-.02a.504.504 0 0 0 .286-.169c.095-.1.143-.245.143-.435l-.007-.885c-.004-.564-.006-1.01-.006-1.34l-.3.052c-.19.035-.43.05-.721.046a5.555 5.555 0 0 1-.904-.091 2.026 2.026 0 0 1-.872-.39 1.651 1.651 0 0 1-.572-.8l-.13-.3a3.25 3.25 0 0 0-.41-.663c-.186-.243-.375-.407-.566-.494l-.09-.065a.956.956 0 0 1-.17-.156.723.723 0 0 1-.117-.182c-.026-.061-.004-.111.065-.15.07-.04.195-.059.378-.059l.26.04c.173.034.388.138.643.311a2.1 2.1 0 0 1 .631.677c.2.355.44.626.722.813.282.186.566.28.852.28.286 0 .533-.022.742-.065a2.59 2.59 0 0 0 .585-.196c.078-.58.29-1.028.637-1.34a8.907 8.907 0 0 1-1.333-.234 5.314 5.314 0 0 1-1.223-.507 3.5 3.5 0 0 1-1.047-.872c-.277-.347-.505-.802-.683-1.365-.177-.564-.266-1.215-.266-1.952 0-1.049.342-1.942 1.027-2.68-.32-.788-.29-1.673.091-2.652.252-.079.625-.02 1.119.175.494.195.856.362 1.086.5.23.14.414.257.553.352a9.233 9.233 0 0 1 2.497-.338c.859 0 1.691.113 2.498.338l.494-.312a6.997 6.997 0 0 1 1.197-.572c.46-.174.81-.221 1.054-.143.39.98.424 1.864.103 2.653.685.737 1.028 1.63 1.028 2.68 0 .737-.089 1.39-.267 1.957-.177.568-.407 1.023-.689 1.366-.282.343-.633.63-1.053.865-.42.234-.828.403-1.223.507a8.9 8.9 0 0 1-1.333.235c.45.39.676 1.005.676 1.846v3.11c0 .147.021.266.065.357a.36.36 0 0 0 .208.189c.096.034.18.056.254.064.074.01.18.013.318.013h2.914c1.032 0 1.914-.366 2.647-1.099.732-.732 1.099-1.615 1.099-2.647V3.746c0-1.032-.367-1.914-1.1-2.647z"></path>
  </symbol>
  <symbol version="1.1" id="linkedin" xmlns="http://www.w3.org/2000/svg" xmlns:xlink="http://www.w3.org/1999/xlink" x="0px" y="0px" xml:space="preserve" viewBox="0 0 502 502">
    <g>
      <g>
        <g>
          <path d="M497,0H5C2.238,0,0,2.239,0,5v492c0,2.761,2.238,5,5,5h492c2.762,0,5-2.239,5-5V5C502,2.239,499.762,0,497,0z M492,492
				H10V10h482V492z"></path>
          <path d="M120.503,167.074c0.299,0.006,0.595,0.009,0.893,0.009c11.55,0,22.98-4.709,31.498-13.01
				c8.978-8.748,13.937-20.489,13.965-33.06c0.025-12.292-4.783-23.898-13.539-32.681c-8.738-8.765-20.289-13.598-32.524-13.61
				c-0.014,0.001-0.021,0-0.032,0c-12.351,0-23.992,4.797-32.779,13.509c-8.808,8.733-13.659,20.315-13.659,32.613
				c-0.003,12.582,4.948,24.366,13.94,33.18C96.941,162.53,108.691,167.275,120.503,167.074z M95.026,95.332
				c6.902-6.842,16.042-10.61,25.739-10.61c0.007,0,0.016,0,0.024,0c9.561,0.009,18.599,3.799,25.45,10.67
				c6.869,6.89,10.641,15.982,10.621,25.599c-0.021,9.858-3.908,19.063-10.944,25.919c-6.85,6.676-16.018,10.38-25.285,10.163
				c-0.039-0.001-0.079-0.001-0.118-0.001c-0.034,0-0.068,0.001-0.1,0.001c-9.16,0.198-18.349-3.528-25.146-10.191
				c-7.056-6.918-10.942-16.164-10.94-26.038C84.327,111.232,88.127,102.172,95.026,95.332z"></path>
          <path d="M144.728,188.574H96.454c-9.016,0-16.351,7.332-16.351,16.344v205.964c0,9.012,7.335,16.344,16.351,16.344h48.275
				c9.015,0,16.349-7.332,16.349-16.344V204.918C161.078,195.906,153.744,188.574,144.728,188.574z M151.078,410.882
				c0,3.498-2.849,6.344-6.35,6.344H96.454c-3.502,0-6.351-2.846-6.351-6.344V204.918c0-3.498,2.849-6.344,6.351-6.344h48.274
				c3.501,0,6.35,2.846,6.35,6.344V410.882z"></path>
          <path d="M344.488,182.733h-12.381c-21.804,0-42.415,9.576-56.492,25.938v-10.39c0-5.355-4.357-9.712-9.712-9.712h-60.236
				c-5.353,0-9.707,4.357-9.707,9.712V417.52c0,5.344,4.35,9.701,9.706,9.712l61.55,0.016c5.353,0,9.707-4.358,9.707-9.714v-126.66
				c0-19.261,15.437-35.106,34.413-35.322c9.474-0.076,18.338,3.514,25.022,10.198c6.574,6.569,10.194,15.311,10.194,24.617V417.55
				c0,5.343,4.35,9.7,9.706,9.712l61.692,0.011c0.008,0,0.014,0,0.021,0c2.585,0,5.015-1.005,6.847-2.832
				c1.838-1.835,2.851-4.276,2.851-6.875V391c0-2.761-2.238-5-5-5c-2.762,0-5,2.239-5,5v26.273l-61.116-0.011V290.366
				c0-11.978-4.661-23.232-13.125-31.689c-8.601-8.601-20.017-13.271-32.205-13.125c-24.427,0.278-44.3,20.608-44.3,45.321v126.373
				l-60.963-0.016V198.568h59.655v24.994c0,3.31,3.125,5.413,6.236,5.044c1.808-0.215,3.096-1.341,3.967-2.873
				c1.039-1.826,2.139-3.614,3.344-5.337c12.071-17.323,31.864-27.664,52.945-27.664h12.381c40.277,0,73.059,32.701,73.187,72.945
				c-0.004,0.078-0.006,0.157-0.006,0.236V289c0,2.761,2.238,5,5,5c2.762,0,5-2.239,5-5v-22.842
				c0.004-0.081,0.006-0.162,0.006-0.244C427.675,220.048,390.357,182.733,344.488,182.733z"></path>
          <path d="M422.668,323c-2.762,0-5,2.239-5,5v27c0,2.761,2.238,5,5,5c2.762,0,5-2.239,5-5v-27
				C427.668,325.239,425.43,323,422.668,323z"></path>
          <path d="M408,51h43c2.762,0,5-2.239,5-5s-2.238-5-5-5h-43c-2.762,0-5,2.239-5,5S405.238,51,408,51z"></path>
          <path d="M200,51h158c2.762,0,5-2.239,5-5s-2.238-5-5-5H200c-2.762,0-5,2.239-5,5S197.238,51,200,51z"></path>
        </g>
      </g>
    </g>
    <g></g>
    <g></g>
    <g></g>
    <g></g>
    <g></g>
    <g></g>
    <g></g>
    <g></g>
    <g></g>
    <g></g>
    <g></g>
    <g></g>
    <g></g>
    <g></g>
    <g></g>
  </symbol>
  <symbol version="1.1" id="phone" xmlns="http://www.w3.org/2000/svg" xmlns:xlink="http://www.w3.org/1999/xlink" x="0px" y="0px" xml:space="preserve" viewBox="0 0 502 502">
    <g>
      <g>
        <path d="M103.656,466.086c0,19.803,15,35.914,33.438,35.914h227.813c18.438,0,33.438-16.111,33.438-35.914V35.914
			c0-19.803-15-35.914-33.438-35.914H137.094c-18.438,0-33.438,16.111-33.438,35.914V466.086z M123.656,78.047h254.688v302.37
			H123.656V78.047z M123.656,35.914c0-8.775,6.028-15.914,13.438-15.914h227.813c7.409,0,13.438,7.139,13.438,15.914v22.133H123.656
			V35.914z M378.344,466.086c0,8.775-6.028,15.914-13.438,15.914H137.094c-7.41,0-13.438-7.139-13.438-15.914v-65.669h254.688
			V466.086z"></path>
        <path d="M251,468.83c15.517,0,28.14-12.623,28.14-28.14s-12.623-28.14-28.14-28.14c-15.516,0-28.14,12.623-28.14,28.14
			S235.484,468.83,251,468.83z M251,432.551c4.488,0,8.14,3.651,8.14,8.14s-3.651,8.14-8.14,8.14s-8.14-3.651-8.14-8.14
			S246.512,432.551,251,432.551z"></path>
        <path d="M260.329,30.061h-18.658c-5.523,0-10,4.478-10,10s4.477,10,10,10h18.658c5.522,0,10-4.478,10-10
			S265.852,30.061,260.329,30.061z"></path>
        <path d="M152.527,165.85c-5.523,0-10,4.478-10,10v176.215c0,5.522,4.477,10,10,10s10-4.478,10-10V175.85
			C162.527,170.327,158.05,165.85,152.527,165.85z"></path>
        <path d="M152.527,98.473c-5.523,0-10,4.478-10,10v26.951c0,5.522,4.477,10,10,10s10-4.478,10-10v-26.951
			C162.527,102.95,158.05,98.473,152.527,98.473z"></path>
      </g>
    </g>
    <g></g>
    <g></g>
    <g></g>
    <g></g>
    <g></g>
    <g></g>
    <g></g>
    <g></g>
    <g></g>
    <g></g>
    <g></g>
    <g></g>
    <g></g>
    <g></g>
    <g></g>
  </symbol>
</svg>